<?xml version="1.0" encoding="UTF-8"?>
<!DOCTYPE svg PUBLIC "-//W3C//DTD SVG 1.1//EN" "http://www.w3.org/Graphics/SVG/1.1/DTD/svg11.dtd">
<svg xmlns="http://www.w3.org/2000/svg" version="1.1" width="512px" height="512px" style="shape-rendering:geometricPrecision; text-rendering:geometricPrecision; image-rendering:optimizeQuality; fill-rule:evenodd; clip-rule:evenodd" xmlns:xlink="http://www.w3.org/1999/xlink">
<g><path style="opacity:0.946" fill="#000000" d="M 259.5,-0.5 C 263.167,-0.5 266.833,-0.5 270.5,-0.5C 294.485,4.99563 312.652,18.329 325,39.5C 328.426,47.203 330.926,55.203 332.5,63.5C 356.197,42.1937 383.197,36.6937 413.5,47C 416.833,48.6667 420.167,50.3333 423.5,52C 427.699,57.2814 427.366,62.2814 422.5,67C 407.833,74.3333 393.167,81.6667 378.5,89C 405.602,97.7612 421.602,116.095 426.5,144C 426.813,150.019 423.98,153.185 418,153.5C 403.67,148.835 389.503,144.002 375.5,139C 385.051,162.629 384.551,186.129 374,209.5C 369,214.833 364,214.833 359,209.5C 349.079,191.325 339.412,172.991 330,154.5C 316.973,189.977 309.307,226.643 307,264.5C 306.5,282.83 306.333,301.164 306.5,319.5C 354.691,326.011 395.524,346.678 429,381.5C 431.167,384.5 433.333,387.5 435.5,390.5C 460.825,391.5 486.158,391.833 511.5,391.5C 511.5,397.5 511.5,403.5 511.5,409.5C 340.833,409.5 170.167,409.5 -0.5,409.5C -0.5,403.5 -0.5,397.5 -0.5,391.5C 24.8421,391.833 50.1754,391.5 75.5,390.5C 93.1132,367.522 115.113,350.022 141.5,338C 150.935,333.8 160.601,330.3 170.5,327.5C 168.998,283.164 159.165,240.831 141,200.5C 133.33,223.511 125.663,246.511 118,269.5C 114.299,273.076 110.133,273.909 105.5,272C 90.7228,250.114 86.2228,226.281 92,200.5C 79.7403,207.714 67.2403,214.548 54.5,221C 48.5691,222.925 44.4024,221.092 42,215.5C 43.02,185.489 57.1866,164.322 84.5,152C 68.6089,146.147 52.6089,140.48 36.5,135C 33.6819,131.662 32.8485,127.829 34,123.5C 35.1667,121 37,119.167 39.5,118C 69.2731,100.711 98.4398,101.545 127,120.5C 129.734,82.429 149.734,59.0957 187,50.5C 192.326,50.8217 195.492,53.6551 196.5,59C 190.923,74.3228 184.923,89.4895 178.5,104.5C 179,104.833 179.5,105.167 180,105.5C 200.529,99.1903 220.529,100.524 240,109.5C 244.932,104.565 250.432,100.399 256.5,97C 242.897,92.1323 229.23,87.4657 215.5,83C 210.469,75.2991 212.136,69.2991 220.5,65C 239.039,54.6639 258.706,51.1639 279.5,54.5C 271.867,40.3723 264.034,26.3723 256,12.5C 254.539,7.32649 255.706,2.99316 259.5,-0.5 Z M 284.5,24.5 C 305.63,35.8146 315.463,53.4813 314,77.5C 303.509,60.1817 293.676,42.515 284.5,24.5 Z M 384.5,59.5 C 387.456,60.1371 390.456,60.6371 393.5,61C 374.578,70.4054 355.578,79.4054 336.5,88C 347.825,70.5086 363.825,61.0086 384.5,59.5 Z M 254.5,71.5 C 268.397,70.6403 281.063,74.1403 292.5,82C 295.206,84.3706 297.539,87.0372 299.5,90C 281.741,85.3055 264.074,79.9722 246.5,74C 249.251,73.0572 251.917,72.2239 254.5,71.5 Z M 169.5,77.5 C 162.593,95.909 154.926,113.909 146.5,131.5C 142.171,108.18 149.837,90.1796 169.5,77.5 Z M 354.5,103.5 C 374.509,104.004 390.509,112.17 402.5,128C 382.615,121.571 362.948,114.237 343.5,106C 347.28,105.082 350.946,104.249 354.5,103.5 Z M 281.5,107.5 C 286.667,107.09 291.667,107.757 296.5,109.5C 296.833,109.833 297.167,110.167 297.5,110.5C 296.5,112.5 295.5,114.5 294.5,116.5C 277.624,123.948 260.624,130.782 243.5,137C 251.41,120.911 264.077,111.078 281.5,107.5 Z M 315.5,115.5 C 318.467,115.989 321.133,117.155 323.5,119C 296.667,182.168 285,248.001 288.5,316.5C 283.195,315.806 277.862,315.472 272.5,315.5C 269.464,245.007 283.797,178.341 315.5,115.5 Z M 196.5,119.5 C 202.176,119.334 207.843,119.501 213.5,120C 197.006,127.993 180.34,135.493 163.5,142.5C 163.491,140.692 163.991,139.025 165,137.5C 173.715,128.23 184.215,122.23 196.5,119.5 Z M 78.5,123.5 C 97.8366,123.337 113.837,130.504 126.5,145C 106.271,139.703 86.2706,133.369 66.5,126C 70.6372,125.161 74.6372,124.327 78.5,123.5 Z M 339.5,126.5 C 359.024,138.548 366.857,155.881 363,178.5C 355,163.167 347,147.833 339,132.5C 338.51,130.455 338.677,128.455 339.5,126.5 Z M 223.5,135.5 C 224.043,135.56 224.376,135.893 224.5,136.5C 223.335,140.494 222.168,144.494 221,148.5C 216.685,146.261 212.185,144.428 207.5,143C 213.045,140.725 218.378,138.225 223.5,135.5 Z M 281.5,141.5 C 282.376,141.369 283.043,141.702 283.5,142.5C 261.561,197.731 251.895,255.064 254.5,314.5C 244.482,314.857 234.482,315.523 224.5,316.5C 222.9,316.449 221.4,316.116 220,315.5C 216.252,270.674 205.086,227.841 186.5,187C 205.248,192.024 223.915,197.691 242.5,204C 253.225,205.608 257.391,201.108 255,190.5C 251.465,179.087 245.631,169.087 237.5,160.5C 252.226,154.133 266.893,147.799 281.5,141.5 Z M 180.5,157.5 C 200.821,156.648 217.154,164.148 229.5,180C 210.752,174.974 192.085,169.307 173.5,163C 172.833,162 172.167,161 171.5,160C 174.579,159.027 177.579,158.194 180.5,157.5 Z M 105.5,163.5 C 110.844,163.334 116.177,163.501 121.5,164C 102.795,174.849 83.7953,184.849 64.5,194C 73.8319,178.001 87.4985,167.835 105.5,163.5 Z M 153.5,167.5 C 159.978,175.769 165.478,184.769 170,194.5C 193.263,246.646 204.429,301.313 203.5,358.5C 209.5,358.5 215.5,358.5 221.5,358.5C 221.5,350.5 221.5,342.5 221.5,334.5C 274.371,328.312 324.704,336.812 372.5,360C 387.641,367.915 400.974,378.248 412.5,391C 307.833,391.667 203.167,391.667 98.5,391C 118.388,370.306 142.055,355.473 169.5,346.5C 170.549,353.158 170.549,359.824 169.5,366.5C 175.509,366.701 181.509,367.034 187.5,367.5C 192.982,298.241 179.649,232.908 147.5,171.5C 149.565,170.143 151.565,168.81 153.5,167.5 Z M 126.5,184.5 C 121.511,201.968 116.011,219.302 110,236.5C 104.677,216.469 109.511,199.302 124.5,185C 125.094,184.536 125.761,184.369 126.5,184.5 Z"/></g>
<g><path style="opacity:0.9" fill="#000000" d="M 280.5,348.5 C 286.5,348.5 292.5,348.5 298.5,348.5C 298.5,354.5 298.5,360.5 298.5,366.5C 292.5,366.5 286.5,366.5 280.5,366.5C 280.5,360.5 280.5,354.5 280.5,348.5 Z"/></g>
<g><path style="opacity:0.899" fill="#000000" d="M 237.5,357.5 C 243.5,357.5 249.5,357.5 255.5,357.5C 255.5,363.5 255.5,369.5 255.5,375.5C 249.5,375.5 243.5,375.5 237.5,375.5C 237.5,369.5 237.5,363.5 237.5,357.5 Z"/></g>
<g><path style="opacity:0.9" fill="#000000" d="M 323.5,357.5 C 329.5,357.5 335.5,357.5 341.5,357.5C 341.5,363.5 341.5,369.5 341.5,375.5C 335.5,375.5 329.5,375.5 323.5,375.5C 323.5,369.5 323.5,363.5 323.5,357.5 Z"/></g>
<g><path style="opacity:0.937" fill="#000000" d="M 75.5,425.5 C 107.167,425.5 138.833,425.5 170.5,425.5C 170.5,431.5 170.5,437.5 170.5,443.5C 138.833,443.5 107.167,443.5 75.5,443.5C 75.5,437.5 75.5,431.5 75.5,425.5 Z"/></g>
<g><path style="opacity:0.944" fill="#000000" d="M 186.5,425.5 C 266.5,425.5 346.5,425.5 426.5,425.5C 426.5,431.5 426.5,437.5 426.5,443.5C 346.5,443.5 266.5,443.5 186.5,443.5C 186.5,437.5 186.5,431.5 186.5,425.5 Z"/></g>
<g><path style="opacity:0.939" fill="#000000" d="M 118.5,459.5 C 155.833,459.5 193.167,459.5 230.5,459.5C 230.5,465.5 230.5,471.5 230.5,477.5C 193.167,477.5 155.833,477.5 118.5,477.5C 118.5,471.5 118.5,465.5 118.5,459.5 Z"/></g>
<g><path style="opacity:0.945" fill="#000000" d="M 246.5,459.5 C 292.167,459.5 337.833,459.5 383.5,459.5C 383.5,465.5 383.5,471.5 383.5,477.5C 337.833,477.5 292.167,477.5 246.5,477.5C 246.5,471.5 246.5,465.5 246.5,459.5 Z"/></g>
<g><path style="opacity:0.937" fill="#000000" d="M 298.5,511.5 C 266.833,511.5 235.167,511.5 203.5,511.5C 203.5,505.5 203.5,499.5 203.5,493.5C 235.167,493.5 266.833,493.5 298.5,493.5C 298.5,499.5 298.5,505.5 298.5,511.5 Z"/></g>
</svg>
