<?xml version="1.0" encoding="UTF-8"?>
<!DOCTYPE svg PUBLIC "-//W3C//DTD SVG 1.1//EN" "http://www.w3.org/Graphics/SVG/1.1/DTD/svg11.dtd">
<svg xmlns="http://www.w3.org/2000/svg" version="1.1" width="512px" height="512px" style="shape-rendering:geometricPrecision; text-rendering:geometricPrecision; image-rendering:optimizeQuality; fill-rule:evenodd; clip-rule:evenodd" xmlns:xlink="http://www.w3.org/1999/xlink">
<g><path style="opacity:0.988" fill="#000000" d="M 138.5,81.5 C 146.507,81.3336 154.507,81.5003 162.5,82C 172.346,83.8463 178.18,89.6796 180,99.5C 180.667,114.833 180.667,130.167 180,145.5C 178.161,153.026 173.661,158.192 166.5,161C 126.914,163.085 107.58,183.918 108.5,223.5C 139.862,223.062 171.196,223.562 202.5,225C 219.528,229.362 229.694,240.195 233,257.5C 233.976,305.204 233.642,352.871 232,400.5C 227.097,415.069 217.264,424.569 202.5,429C 178.525,430.119 154.525,430.619 130.5,430.5C 109.5,430.333 88.5,430.167 67.5,430C 47.9945,428.823 35.1611,418.99 29,400.5C 27.35,331.536 27.0167,262.536 28,193.5C 33.6857,144.274 59.1857,109.774 104.5,90C 115.656,85.8777 126.989,83.0444 138.5,81.5 Z"/></g>
<g><path style="opacity:0.992" fill="#000000" d="M 387.5,81.5 C 395.84,81.3336 404.173,81.5003 412.5,82C 421.14,83.3088 426.64,88.1422 429,96.5C 429.667,113.5 429.667,130.5 429,147.5C 426.945,152.888 423.445,157.054 418.5,160C 408.732,161.508 399.065,163.508 389.5,166C 365.968,177.889 355.635,197.056 358.5,223.5C 387.169,223.333 415.835,223.5 444.5,224C 463.879,225.713 476.379,235.879 482,254.5C 482.667,302.5 482.667,350.5 482,398.5C 477.825,414.675 467.658,424.842 451.5,429C 407.125,429.172 362.792,429.672 318.5,430.5C 290.145,427.15 276.145,411.15 276.5,382.5C 277.316,317.843 277.816,253.176 278,188.5C 289.329,127.004 325.829,91.3373 387.5,81.5 Z"/></g>
</svg>
