<?xml version="1.0" encoding="UTF-8"?>
<!DOCTYPE svg PUBLIC "-//W3C//DTD SVG 1.1//EN" "http://www.w3.org/Graphics/SVG/1.1/DTD/svg11.dtd">
<svg xmlns="http://www.w3.org/2000/svg" version="1.1" width="512px" height="512px" style="shape-rendering:geometricPrecision; text-rendering:geometricPrecision; image-rendering:optimizeQuality; fill-rule:evenodd; clip-rule:evenodd" xmlns:xlink="http://www.w3.org/1999/xlink">
<g><path style="opacity:0.942" fill="#000000" d="M 511.5,174.5 C 511.5,274.167 511.5,373.833 511.5,473.5C 506.899,483.89 498.899,487.724 487.5,485C 451.667,472.167 415.833,459.333 380,446.5C 365.532,451.6 351.032,456.6 336.5,461.5C 328.382,458.781 326.715,453.948 331.5,447C 344.384,441.872 357.384,437.038 370.5,432.5C 371.5,394.172 371.833,355.839 371.5,317.5C 335.094,317.598 318.26,299.598 321,263.5C 324.07,251.125 328.236,239.125 333.5,227.5C 331.871,224.17 329.205,222.003 325.5,221C 300.07,218.617 292.237,205.784 302,182.5C 307.692,176.069 314.526,171.236 322.5,168C 325.979,164.538 327.146,160.704 326,156.5C 305.32,164.337 284.487,171.671 263.5,178.5C 263.167,275.836 263.5,373.169 264.5,470.5C 277.321,465.56 290.321,461.226 303.5,457.5C 311.403,458.682 313.569,463.015 310,470.5C 292.173,478.054 274.006,484.721 255.5,490.5C 213.985,475.939 172.485,461.272 131,446.5C 95.1667,459.333 59.3333,472.167 23.5,485C 12.1011,487.724 4.10111,483.89 -0.5,473.5C -0.5,373.833 -0.5,274.167 -0.5,174.5C 1.09757,171.505 3.09757,168.671 5.5,166C 20.0882,160.137 34.7548,154.47 49.5,149C 32.9218,106.978 41.2552,70.6444 74.5,40C 108.189,16.4573 143.189,14.4573 179.5,34C 202.579,49.0633 215.745,70.2299 219,97.5C 215.58,101.753 211.413,102.587 206.5,100C 202.931,90.3142 198.765,80.8142 194,71.5C 172.899,41.4611 144.399,30.9611 108.5,40C 76.013,52.6741 58.6796,76.5075 56.5,111.5C 57.4863,130.123 63.9863,146.457 76,160.5C 93.5572,180.051 111.057,199.551 128.5,219C 130.5,219.667 132.5,219.667 134.5,219C 152.549,198.406 170.716,177.906 189,157.5C 196.881,147.377 202.381,136.043 205.5,123.5C 209.667,119.583 213.833,119.583 218,123.5C 218.958,125.199 219.458,127.033 219.5,129C 218.034,136.045 216.2,142.879 214,149.5C 227.769,154.633 241.603,159.633 255.5,164.5C 296.954,149.689 338.454,135.023 380,120.5C 422.571,135.022 464.738,150.522 506.5,167C 508.314,169.479 509.981,171.979 511.5,174.5 Z M 369.5,140.5 C 371.496,193.823 372.162,247.49 371.5,301.5C 358.583,302.702 348.083,298.369 340,288.5C 336.644,281.195 335.644,273.529 337,265.5C 339.68,255.127 343.346,245.127 348,235.5C 351.224,220.782 345.724,210.948 331.5,206C 326.216,204.453 320.882,203.12 315.5,202C 313.009,199.032 312.843,195.865 315,192.5C 318.755,187.705 323.588,184.538 329.5,183C 336.387,179.113 340.553,173.279 342,165.5C 342.886,160.53 343.552,155.53 344,150.5C 352.622,147.242 361.122,143.908 369.5,140.5 Z M 387.5,140.5 C 423.725,152.949 459.725,165.949 495.5,179.5C 496.664,275.46 496.831,371.46 496,467.5C 494.582,469.363 492.749,469.863 490.5,469C 487.006,467.783 483.673,466.283 480.5,464.5C 493.24,438.626 488.24,416.793 465.5,399C 441.241,387.676 436.741,370.843 452,348.5C 466.446,335.469 469.446,320.135 461,302.5C 452.474,287.892 439.974,283.059 423.5,288C 411.511,291.608 399.511,295.108 387.5,298.5C 387.5,245.833 387.5,193.167 387.5,140.5 Z M 56.5,163.5 C 75.7502,184.928 94.9169,206.594 114,228.5C 116.695,230.694 119.528,232.694 122.5,234.5C 123.5,300.497 123.833,366.497 123.5,432.5C 88.3174,444.728 53.1508,457.061 18,469.5C 16.6739,469.245 15.6739,468.578 15,467.5C 14.3333,371.833 14.3333,276.167 15,180.5C 15.5,179.333 16.3333,178.5 17.5,178C 30.7918,173.629 43.7918,168.796 56.5,163.5 Z M 204.5,163.5 C 218.733,168.783 233.066,173.783 247.5,178.5C 247.5,275.833 247.5,373.167 247.5,470.5C 211.758,458.133 176.091,445.466 140.5,432.5C 139.333,366.503 139.167,300.503 140,234.5C 144.584,231.92 148.584,228.587 152,224.5C 169.71,204.295 187.21,183.961 204.5,163.5 Z M 431.5,302.5 C 434.978,302.184 438.312,302.684 441.5,304C 450.185,312.034 451.685,321.201 446,331.5C 430.548,346.408 424.881,364.408 429,385.5C 431.315,392.619 435.481,398.452 441.5,403C 455.083,409.583 464.917,419.749 471,433.5C 472.628,443.44 470.128,452.107 463.5,459.5C 438.283,450.095 412.95,441.095 387.5,432.5C 387.167,393.494 387.5,354.494 388.5,315.5C 402.886,310.923 417.219,306.59 431.5,302.5 Z"/></g>
<g><path style="opacity:0.927" fill="#000000" d="M 122.5,57.5 C 155.193,55.4079 175.693,70.0746 184,101.5C 186.939,135.157 172.106,155.99 139.5,164C 110.581,166.464 90.7472,154.297 80,127.5C 73.0123,91.1192 87.179,67.7859 122.5,57.5 Z M 124.5,73.5 C 154.793,73.2924 169.293,88.2924 168,118.5C 161.601,140.126 147.101,149.959 124.5,148C 101.206,141.039 91.3725,125.539 95,101.5C 99.8578,86.8062 109.691,77.4729 124.5,73.5 Z"/></g>
<g><path style="opacity:0.916" fill="#000000" d="M 49.5,241.5 C 55.4574,241.645 60.1241,244.145 63.5,249C 70.9206,251.638 76.9206,249.638 81.5,243C 88.9351,240.589 94.9351,242.589 99.5,249C 102.833,250 106.167,251 109.5,252C 114.199,256.063 114.532,260.396 110.5,265C 102.012,267.784 94.3458,266.284 87.5,260.5C 75.4465,268.456 63.4465,268.456 51.5,260.5C 44.9087,265.308 37.5754,267.142 29.5,266C 27.6667,265.5 26.5,264.333 26,262.5C 24.2762,257.269 25.7762,253.435 30.5,251C 36.7593,250.704 41.7593,248.037 45.5,243C 47.0581,242.79 48.3915,242.29 49.5,241.5 Z"/></g>
<g><path style="opacity:0.916" fill="#000000" d="M 49.5,280.5 C 55.4574,280.645 60.1241,283.145 63.5,288C 70.9206,290.638 76.9206,288.638 81.5,282C 88.9351,279.589 94.9351,281.589 99.5,288C 102.833,289 106.167,290 109.5,291C 114.199,295.063 114.532,299.396 110.5,304C 102.012,306.784 94.3458,305.284 87.5,299.5C 75.4465,307.456 63.4465,307.456 51.5,299.5C 44.9643,304.467 37.631,306.301 29.5,305C 27.6667,304.5 26.5,303.333 26,301.5C 24.2762,296.269 25.7762,292.435 30.5,290C 36.7593,289.704 41.7593,287.037 45.5,282C 47.0581,281.79 48.3915,281.29 49.5,280.5 Z"/></g>
<g><path style="opacity:0.921" fill="#000000" d="M 171.5,291.5 C 177.926,290.38 182.926,292.547 186.5,298C 190.351,300.635 194.351,300.969 198.5,299C 207.167,289 215.833,289 224.5,299C 227.424,299.988 230.424,300.654 233.5,301C 238.368,305.172 238.702,309.672 234.5,314.5C 225.909,317.014 218.076,315.347 211,309.5C 199.071,318.743 187.071,318.743 175,309.5C 168.43,315.279 160.93,317.113 152.5,315C 148.221,309.967 148.554,305.3 153.5,301C 156.576,300.654 159.576,299.988 162.5,299C 165.106,295.882 168.106,293.382 171.5,291.5 Z"/></g>
<g><path style="opacity:0.922" fill="#000000" d="M 171.5,330.5 C 177.926,329.38 182.926,331.547 186.5,337C 190.351,339.635 194.351,339.969 198.5,338C 206.266,328.522 214.266,328.188 222.5,337C 225.957,338.743 229.623,339.743 233.5,340C 238.368,344.172 238.702,348.672 234.5,353.5C 225.909,356.014 218.076,354.347 211,348.5C 199.071,357.743 187.071,357.743 175,348.5C 168.43,354.279 160.93,356.113 152.5,354C 148.221,348.967 148.554,344.3 153.5,340C 156.576,339.654 159.576,338.988 162.5,338C 165.106,334.882 168.106,332.382 171.5,330.5 Z"/></g>
<g><path style="opacity:0.914" fill="#000000" d="M 296.5,340.5 C 302.475,339.879 307.141,342.046 310.5,347C 314.67,349.788 319.003,350.121 323.5,348C 330.897,338.48 338.563,338.147 346.5,347C 350.361,348.754 354.361,350.088 358.5,351C 362.779,356.033 362.446,360.7 357.5,365C 349.425,366.142 342.091,364.308 335.5,359.5C 323.513,367.498 311.513,367.498 299.5,359.5C 293.283,364.304 286.283,366.138 278.5,365C 273.465,361.987 272.298,357.82 275,352.5C 278.872,350.319 283.039,348.819 287.5,348C 290.106,344.882 293.106,342.382 296.5,340.5 Z"/></g>
<g><path style="opacity:0.914" fill="#000000" d="M 296.5,379.5 C 302.475,378.879 307.141,381.046 310.5,386C 314.67,388.788 319.003,389.121 323.5,387C 330.897,377.48 338.563,377.147 346.5,386C 350.361,387.754 354.361,389.088 358.5,390C 362.779,395.033 362.446,399.7 357.5,404C 349.425,405.142 342.091,403.308 335.5,398.5C 323.513,406.498 311.513,406.498 299.5,398.5C 293.283,403.304 286.283,405.138 278.5,404C 273.465,400.987 272.298,396.82 275,391.5C 278.872,389.319 283.039,387.819 287.5,387C 290.106,383.882 293.106,381.382 296.5,379.5 Z"/></g>
</svg>
