<?xml version="1.0" encoding="UTF-8"?>
<!DOCTYPE svg PUBLIC "-//W3C//DTD SVG 1.1//EN" "http://www.w3.org/Graphics/SVG/1.1/DTD/svg11.dtd">
<svg xmlns="http://www.w3.org/2000/svg" version="1.1" width="512px" height="512px" style="shape-rendering:geometricPrecision; text-rendering:geometricPrecision; image-rendering:optimizeQuality; fill-rule:evenodd; clip-rule:evenodd" xmlns:xlink="http://www.w3.org/1999/xlink">
<g><path style="opacity:0.924" fill="#000000" d="M 422.5,-0.5 C 428.5,-0.5 434.5,-0.5 440.5,-0.5C 445.687,1.42666 450.687,3.92666 455.5,7C 471.667,23.1667 487.833,39.3333 504,55.5C 507.073,60.3133 509.573,65.3133 511.5,70.5C 511.5,76.5 511.5,82.5 511.5,88.5C 509.489,94.1839 506.656,99.5172 503,104.5C 383.167,224.333 263.333,344.167 143.5,464C 105.078,479.886 66.7443,495.719 28.5,511.5C 24.1667,511.5 19.8333,511.5 15.5,511.5C 7.83333,508.5 2.5,503.167 -0.5,495.5C -0.5,491.167 -0.5,486.833 -0.5,482.5C 15.2806,444.256 31.1139,405.922 47,367.5C 166.833,247.667 286.667,127.833 406.5,8C 411.483,4.344 416.816,1.51066 422.5,-0.5 Z M 431.5,14.5 C 436.579,15.2493 441.246,17.0826 445.5,20C 460.667,35.1667 475.833,50.3333 491,65.5C 497,74.8333 497,84.1667 491,93.5C 478.333,106.167 465.667,118.833 453,131.5C 428.5,107 404,82.5 379.5,58C 392.167,45.3333 404.833,32.6667 417.5,20C 421.845,17.0574 426.511,15.2241 431.5,14.5 Z M 367.5,69.5 C 392.299,93.7984 416.965,118.298 441.5,143C 434.667,149.833 427.833,156.667 421,163.5C 396.5,139 372,114.5 347.5,90C 354.369,83.2982 361.036,76.4649 367.5,69.5 Z M 335.5,101.5 C 345.798,111.298 355.965,121.298 366,131.5C 366.667,132.167 366.667,132.833 366,133.5C 324.333,175.167 282.667,216.833 241,258.5C 238.833,268.333 242.667,272.167 252.5,270C 294.167,228.333 335.833,186.667 377.5,145C 378.167,144.333 378.833,144.333 379.5,145C 389.5,155 399.5,165 409.5,175C 319.333,265.167 229.167,355.333 139,445.5C 129,435.5 119,425.5 109,415.5C 108.333,414.833 108.333,414.167 109,413.5C 150.333,372.167 191.667,330.833 233,289.5C 236.5,278.333 232.667,274.5 221.5,278C 180.167,319.333 138.833,360.667 97.5,402C 96.8333,402.667 96.1667,402.667 95.5,402C 85.5,392 75.5,382 65.5,372C 155.701,281.965 245.701,191.799 335.5,101.5 Z M 56.5,387.5 C 78.9653,409.465 101.299,431.632 123.5,454C 104.312,462.425 84.9789,470.591 65.5,478.5C 54.5141,468.014 43.6807,457.348 33,446.5C 40.2279,426.693 48.0612,407.026 56.5,387.5 Z M 25.5,462.5 C 33.2983,469.798 40.9649,477.298 48.5,485C 40.9805,488.591 33.3138,491.925 25.5,495C 17.6667,496.5 14.5,493.333 16,485.5C 19.1819,477.808 22.3486,470.141 25.5,462.5 Z"/></g>
</svg>
