<?xml version="1.0" encoding="UTF-8"?>
<!DOCTYPE svg PUBLIC "-//W3C//DTD SVG 1.1//EN" "http://www.w3.org/Graphics/SVG/1.1/DTD/svg11.dtd">
<svg xmlns="http://www.w3.org/2000/svg" version="1.1" width="512px" height="512px" style="shape-rendering:geometricPrecision; text-rendering:geometricPrecision; image-rendering:optimizeQuality; fill-rule:evenodd; clip-rule:evenodd" xmlns:xlink="http://www.w3.org/1999/xlink">
<g><path style="opacity:0.944" fill="#000000" d="M 246.5,-0.5 C 252.167,-0.5 257.833,-0.5 263.5,-0.5C 272.598,2.47603 280.098,7.80936 286,15.5C 299.092,40.1999 306.092,66.5333 307,94.5C 307.333,126.5 307.667,158.5 308,190.5C 321.753,198.294 335.586,205.96 349.5,213.5C 357.853,196.328 370.853,191.495 388.5,199C 394.148,202.787 397.982,207.954 400,214.5C 400.168,223.518 400.668,232.518 401.5,241.5C 410.08,246.04 418.58,250.706 427,255.5C 433.002,241.746 443.502,236.246 458.5,239C 468,241.833 474.167,248 477,257.5C 477.333,265.833 477.667,274.167 478,282.5C 489.443,288.8 500.609,295.467 511.5,302.5C 511.5,322.167 511.5,341.833 511.5,361.5C 509.654,364.839 506.821,366.839 503,367.5C 437.856,343.563 372.856,319.23 308,294.5C 307.667,319.167 307.333,343.833 307,368.5C 304.356,382.884 301.523,397.218 298.5,411.5C 324.082,427.894 350.082,443.727 376.5,459C 378.96,460.458 381.127,462.291 383,464.5C 383.667,478.833 383.667,493.167 383,507.5C 381.624,508.705 380.458,510.038 379.5,511.5C 375.5,511.5 371.5,511.5 367.5,511.5C 339.354,506.236 311.02,501.236 282.5,496.5C 277.611,503.396 271.278,508.396 263.5,511.5C 258.167,511.5 252.833,511.5 247.5,511.5C 239.738,508.582 233.571,503.582 229,496.5C 200.341,501.359 171.841,506.359 143.5,511.5C 139.5,511.5 135.5,511.5 131.5,511.5C 130.542,510.038 129.376,508.705 128,507.5C 127.333,493.167 127.333,478.833 128,464.5C 129.873,462.291 132.04,460.458 134.5,459C 161.084,443.708 187.084,427.708 212.5,411C 209.411,396.888 206.578,382.721 204,368.5C 203.667,343.833 203.333,319.167 203,294.5C 138.144,319.23 73.1438,343.563 8,367.5C 4.1793,366.839 1.34596,364.839 -0.5,361.5C -0.5,341.833 -0.5,322.167 -0.5,302.5C 9.98269,295.42 20.9827,289.087 32.5,283.5C 33.3319,274.852 33.8319,266.186 34,257.5C 39.6362,242.427 50.4695,236.26 66.5,239C 75.2628,241.43 81.0962,246.93 84,255.5C 92.4198,250.706 100.92,246.04 109.5,241.5C 110.332,232.518 110.832,223.518 111,214.5C 117.201,198.482 128.701,192.649 145.5,197C 153.037,200.371 158.371,205.871 161.5,213.5C 175.414,205.96 189.247,198.294 203,190.5C 203.333,157.5 203.667,124.5 204,91.5C 205.23,64.2468 212.23,38.5801 225,14.5C 230.742,7.38544 237.909,2.38544 246.5,-0.5 Z M 249.5,17.5 C 258.646,15.9949 265.813,18.9949 271,26.5C 282.322,48.4536 288.322,71.7869 289,96.5C 289.667,186.167 289.667,275.833 289,365.5C 281.462,405.524 273.795,445.524 266,485.5C 262.776,493.346 257.276,495.513 249.5,492C 247.106,490.048 245.606,487.548 245,484.5C 237.226,444.854 229.559,405.187 222,365.5C 221.037,270.487 221.37,175.487 223,80.5C 225.544,59.8702 231.877,40.5369 242,22.5C 244.479,20.6859 246.979,19.0192 249.5,17.5 Z M 202.5,211.5 C 203.497,232.66 203.831,253.993 203.5,275.5C 141.756,298.202 80.0889,321.202 18.5,344.5C 17.1667,333.5 17.1667,322.5 18.5,311.5C 80.2149,278.647 141.548,245.313 202.5,211.5 Z M 307.5,211.5 C 368.98,245.075 430.647,278.408 492.5,311.5C 493.833,322.5 493.833,333.5 492.5,344.5C 430.911,321.202 369.244,298.202 307.5,275.5C 307.5,254.167 307.5,232.833 307.5,211.5 Z M 133.5,213.5 C 139.415,213.082 143.081,215.748 144.5,221.5C 139.625,225.194 134.458,228.527 129,231.5C 128.333,227.167 128.333,222.833 129,218.5C 130.025,216.313 131.525,214.646 133.5,213.5 Z M 372.5,213.5 C 379.982,213.317 383.315,216.984 382.5,224.5C 382.167,226.5 381.833,228.5 381.5,230.5C 376.426,228.214 371.592,225.547 367,222.5C 366.931,218.39 368.764,215.39 372.5,213.5 Z M 56.5,256.5 C 62.3336,255.577 66.0003,257.91 67.5,263.5C 62.7015,266.737 57.7015,269.737 52.5,272.5C 51.3414,268.878 51.1747,265.211 52,261.5C 53.025,259.313 54.525,257.646 56.5,256.5 Z M 448.5,256.5 C 456.248,255.749 459.915,259.249 459.5,267C 459.167,268.833 458.833,270.667 458.5,272.5C 453.747,269.706 448.914,267.04 444,264.5C 443.721,260.839 445.221,258.172 448.5,256.5 Z M 215.5,431.5 C 219.067,446.993 222.4,462.66 225.5,478.5C 199.182,483.275 172.848,487.942 146.5,492.5C 145.167,486.167 145.167,479.833 146.5,473.5C 169.73,459.726 192.73,445.726 215.5,431.5 Z M 294.5,431.5 C 317.806,445.489 341.139,459.489 364.5,473.5C 365.664,479.807 365.831,486.141 365,492.5C 338.922,487.737 312.756,483.237 286.5,479C 286.167,478.667 285.833,478.333 285.5,478C 288.944,462.614 291.944,447.114 294.5,431.5 Z"/></g>
<g><path style="opacity:0.916" fill="#000000" d="M 251.5,50.5 C 260.366,49.5185 267.533,52.5185 273,59.5C 276.591,67.2629 279.091,75.0963 280.5,83C 275.129,84.7346 269.796,86.568 264.5,88.5C 262.041,82.624 259.874,76.624 258,70.5C 256.333,67.8333 254.667,67.8333 253,70.5C 251.126,76.624 248.959,82.624 246.5,88.5C 240.683,86.6182 235.016,84.4515 229.5,82C 232.132,74.439 234.965,66.939 238,59.5C 241.528,54.8341 246.028,51.8341 251.5,50.5 Z"/></g>
</svg>
