<?xml version="1.0" encoding="UTF-8"?>
<!DOCTYPE svg PUBLIC "-//W3C//DTD SVG 1.1//EN" "http://www.w3.org/Graphics/SVG/1.1/DTD/svg11.dtd">
<svg xmlns="http://www.w3.org/2000/svg" version="1.1" width="512px" height="512px" style="shape-rendering:geometricPrecision; text-rendering:geometricPrecision; image-rendering:optimizeQuality; fill-rule:evenodd; clip-rule:evenodd" xmlns:xlink="http://www.w3.org/1999/xlink">
<g><path style="opacity:0.949" fill="#000000" d="M 77.5,-0.5 C 116.5,-0.5 155.5,-0.5 194.5,-0.5C 213.472,8.69271 217.972,22.6927 208,41.5C 200.249,49.625 190.749,52.9583 179.5,51.5C 179.5,70.8333 179.5,90.1667 179.5,109.5C 196.837,109.333 214.17,109.5 231.5,110C 252.766,112.273 266.433,123.606 272.5,144C 304.167,144.333 335.833,144.667 367.5,145C 387.796,150.961 398.962,164.461 401,185.5C 401.5,194.494 401.666,203.494 401.5,212.5C 427.885,212.036 454.218,212.536 480.5,214C 496.862,219.193 507.195,230.026 511.5,246.5C 511.5,309.5 511.5,372.5 511.5,435.5C 508.664,445.355 503.33,453.688 495.5,460.5C 507.487,477.471 505.821,492.971 490.5,507C 487.185,508.83 483.851,510.33 480.5,511.5C 475.5,511.5 470.5,511.5 465.5,511.5C 446.325,503.817 439.325,489.817 444.5,469.5C 383.83,469.167 323.163,469.5 262.5,470.5C 267.847,490.138 261.18,503.804 242.5,511.5C 237.167,511.5 231.833,511.5 226.5,511.5C 207.089,503.844 200.423,490.011 206.5,470C 202.514,469.501 198.514,469.334 194.5,469.5C 199.675,489.817 192.675,503.817 173.5,511.5C 168.5,511.5 163.5,511.5 158.5,511.5C 139.313,503.793 132.313,489.793 137.5,469.5C 113.833,469.5 90.1667,469.5 66.5,469.5C 71.6752,489.817 64.6752,503.817 45.5,511.5C 40.5,511.5 35.5,511.5 30.5,511.5C 11.1361,503.77 4.30275,489.77 10,469.5C 11.6349,466.368 13.4682,463.368 15.5,460.5C 7.66951,453.688 2.33617,445.355 -0.5,435.5C -0.5,338.167 -0.5,240.833 -0.5,143.5C 5.91103,122.931 19.911,111.765 41.5,110C 58.4967,109.5 75.4967,109.333 92.5,109.5C 92.5,90.1667 92.5,70.8333 92.5,51.5C 67.871,52.3774 57.0377,40.7107 60,16.5C 63.1095,7.88855 68.9428,2.22189 77.5,-0.5 Z M 81.5,17.5 C 117.835,17.3333 154.168,17.5 190.5,18C 197.332,23.8726 196.666,28.8726 188.5,33C 153.5,33.6667 118.5,33.6667 83.5,33C 75.208,28.6683 74.5414,23.5017 81.5,17.5 Z M 110.5,51.5 C 127.5,51.5 144.5,51.5 161.5,51.5C 161.5,70.8333 161.5,90.1667 161.5,109.5C 144.5,109.5 127.5,109.5 110.5,109.5C 110.5,90.1667 110.5,70.8333 110.5,51.5 Z M 41.5,127.5 C 104.501,127.333 167.501,127.5 230.5,128C 246.02,129.598 253.853,138.098 254,153.5C 243.877,161.747 238.543,172.413 238,185.5C 237.5,194.494 237.334,203.494 237.5,212.5C 232.167,212.5 226.833,212.5 221.5,212.5C 221.5,195.5 221.5,178.5 221.5,161.5C 215.5,161.5 209.5,161.5 203.5,161.5C 203.5,178.5 203.5,195.5 203.5,212.5C 192.5,212.5 181.5,212.5 170.5,212.5C 170.5,195.5 170.5,178.5 170.5,161.5C 164.5,161.5 158.5,161.5 152.5,161.5C 152.833,179.845 152.5,198.179 151.5,216.5C 139.087,222.417 131.254,232.084 128,245.5C 127.333,308.833 127.333,372.167 128,435.5C 129.078,440.987 131.244,445.987 134.5,450.5C 102.505,451.667 70.5052,451.833 38.5,451C 29.3866,449.037 22.8866,443.871 19,435.5C 17.3467,383.225 17.0134,330.892 18,278.5C 28.7519,273.693 39.4186,268.693 50,263.5C 50.5,312.166 50.6667,360.832 50.5,409.5C 56.5,409.5 62.5,409.5 68.5,409.5C 68.1667,358.162 68.5001,306.829 69.5,255.5C 76.9857,252.257 84.319,248.757 91.5,245C 93.9837,240.64 94.1504,236.14 92,231.5C 86.6667,218.167 81.3333,204.833 76,191.5C 74.2609,189.259 72.0942,187.592 69.5,186.5C 68.5021,178.193 68.1688,169.86 68.5,161.5C 62.5,161.5 56.5,161.5 50.5,161.5C 50.832,172.187 50.4987,182.854 49.5,193.5C 38.9258,198.038 28.4258,202.705 18,207.5C 17.3333,187.167 17.3333,166.833 18,146.5C 22.1882,135.463 30.0216,129.129 41.5,127.5 Z M 274.5,162.5 C 305.563,162.023 336.563,162.523 367.5,164C 374.478,167.643 379.311,173.143 382,180.5C 383.312,191.122 383.812,201.789 383.5,212.5C 377.833,212.5 372.167,212.5 366.5,212.5C 366.666,202.494 366.5,192.494 366,182.5C 365.167,181.667 364.333,180.833 363.5,180C 348.923,178.849 334.256,178.349 319.5,178.5C 304.744,178.349 290.077,178.849 275.5,180C 274.299,180.903 273.465,182.069 273,183.5C 272.5,193.161 272.334,202.828 272.5,212.5C 266.833,212.5 261.167,212.5 255.5,212.5C 255.334,204.16 255.5,195.827 256,187.5C 257.041,175.303 263.207,166.969 274.5,162.5 Z M 290.5,196.5 C 309.833,196.5 329.167,196.5 348.5,196.5C 348.5,201.833 348.5,207.167 348.5,212.5C 329.167,212.5 309.833,212.5 290.5,212.5C 290.5,207.167 290.5,201.833 290.5,196.5 Z M 60.5,208.5 C 62.1238,208.36 63.2904,209.027 64,210.5C 66.6667,217.167 69.3333,223.833 72,230.5C 72.7805,231.944 72.6139,233.277 71.5,234.5C 53.5922,242.371 35.7589,250.371 18,258.5C 17.3333,248.167 17.3333,237.833 18,227.5C 32.2928,221.244 46.4595,214.911 60.5,208.5 Z M 165.5,230.5 C 166.833,230.5 168.167,230.5 169.5,230.5C 169.833,255.842 169.5,281.175 168.5,306.5C 161.167,302.167 153.833,297.833 146.5,293.5C 146.167,286.167 145.833,278.833 145.5,271.5C 145.379,263.094 145.879,254.761 147,246.5C 150.609,238.048 156.775,232.715 165.5,230.5 Z M 187.5,230.5 C 192.833,230.5 198.167,230.5 203.5,230.5C 203.833,262.507 203.5,294.507 202.5,326.5C 197.751,323.375 192.917,320.375 188,317.5C 187.5,288.502 187.333,259.502 187.5,230.5 Z M 221.5,230.5 C 286.833,230.5 352.167,230.5 417.5,230.5C 417.5,264.167 417.5,297.833 417.5,331.5C 396.125,332.74 382.291,343.407 376,363.5C 374.334,385.001 382.834,401.168 401.5,412C 406.563,414.702 411.897,416.536 417.5,417.5C 417.5,428.833 417.5,440.167 417.5,451.5C 352.167,451.5 286.833,451.5 221.5,451.5C 221.333,434.83 221.5,418.163 222,401.5C 224.627,400.686 226.96,399.353 229,397.5C 235.999,384.505 242.165,371.172 247.5,357.5C 247.352,354.37 246.018,351.87 243.5,350C 236.088,346.212 228.921,342.045 222,337.5C 221.5,301.835 221.333,266.168 221.5,230.5 Z M 435.5,230.5 C 440.833,230.5 446.167,230.5 451.5,230.5C 451.667,266.835 451.5,303.168 451,339.5C 446.386,337.016 441.552,335.016 436.5,333.5C 435.5,299.173 435.167,264.84 435.5,230.5 Z M 469.5,230.5 C 481.643,231.475 489.477,237.808 493,249.5C 493.667,310.5 493.667,371.5 493,432.5C 489.161,443.681 481.327,450.015 469.5,451.5C 469.333,435.163 469.5,418.83 470,402.5C 479.922,387.521 479.922,372.521 470,357.5C 469.5,315.168 469.333,272.835 469.5,230.5 Z M 306.5,271.5 C 314.97,282.818 323.303,294.318 331.5,306C 314.833,306.667 298.167,306.667 281.5,306C 290.21,294.736 298.543,283.236 306.5,271.5 Z M 145.5,314.5 C 172.801,329.817 199.801,345.651 226.5,362C 223.706,367.088 221.039,372.255 218.5,377.5C 217.635,378.583 216.635,378.749 215.5,378C 192.5,364.167 169.5,350.333 146.5,336.5C 145.503,329.197 145.169,321.863 145.5,314.5 Z M 415.5,349.5 C 435.024,348.338 449.191,356.338 458,373.5C 460.271,388.601 453.771,397.768 438.5,401C 423.388,402.852 410.555,398.352 400,387.5C 388.294,367.916 393.46,355.249 415.5,349.5 Z M 145.5,357.5 C 153.388,362.029 161.222,366.696 169,371.5C 169.5,398.165 169.667,424.831 169.5,451.5C 157.673,450.015 149.839,443.681 146,432.5C 145.5,407.502 145.333,382.502 145.5,357.5 Z M 187.5,382.5 C 192.638,385.237 197.638,388.237 202.5,391.5C 203.5,411.489 203.833,431.489 203.5,451.5C 198.167,451.5 192.833,451.5 187.5,451.5C 187.5,428.5 187.5,405.5 187.5,382.5 Z M 448.5,416.5 C 449.5,416.5 450.5,416.5 451.5,416.5C 451.5,428.167 451.5,439.833 451.5,451.5C 446.167,451.5 440.833,451.5 435.5,451.5C 435.5,440.833 435.5,430.167 435.5,419.5C 440.151,419.373 444.485,418.373 448.5,416.5 Z M 34.5,469.5 C 46.487,469.308 51.3203,474.975 49,486.5C 44.8722,493.489 39.0389,495.322 31.5,492C 22.8872,483.181 23.8872,475.681 34.5,469.5 Z M 162.5,469.5 C 174.487,469.308 179.32,474.975 177,486.5C 172.872,493.489 167.039,495.322 159.5,492C 150.887,483.181 151.887,475.681 162.5,469.5 Z M 230.5,469.5 C 242.998,469.487 247.831,475.487 245,487.5C 241.178,493.041 236.011,494.874 229.5,493C 222.847,489.195 220.68,483.695 223,476.5C 224.742,473.254 227.242,470.921 230.5,469.5 Z M 469.5,469.5 C 482.932,469.74 487.432,476.073 483,488.5C 479.212,493.153 474.378,494.653 468.5,493C 457.713,484.661 458.046,476.828 469.5,469.5 Z"/></g>
<g><path style="opacity:0.947" fill="#000000" d="M 101.5,161.5 C 107.5,161.5 113.5,161.5 119.5,161.5C 119.5,244.167 119.5,326.833 119.5,409.5C 113.5,409.5 107.5,409.5 101.5,409.5C 101.5,326.833 101.5,244.167 101.5,161.5 Z"/></g>
<g><path style="opacity:0.936" fill="#000000" d="M 303.5,246.5 C 307.422,246.069 310.922,247.069 314,249.5C 327.754,269.343 341.754,289.009 356,308.5C 359.695,313.818 359.195,318.651 354.5,323C 323.561,324.644 292.561,324.977 261.5,324C 259.919,323.293 258.419,322.46 257,321.5C 255.496,317.961 255.163,314.295 256,310.5C 270.246,291.009 284.246,271.343 298,251.5C 299.73,249.598 301.563,247.931 303.5,246.5 Z M 306.5,271.5 C 298.543,283.236 290.21,294.736 281.5,306C 298.167,306.667 314.833,306.667 331.5,306C 323.303,294.318 314.97,282.818 306.5,271.5 Z"/></g>
</svg>
