<?xml version="1.0" encoding="UTF-8"?>
<!DOCTYPE svg PUBLIC "-//W3C//DTD SVG 1.1//EN" "http://www.w3.org/Graphics/SVG/1.1/DTD/svg11.dtd">
<svg xmlns="http://www.w3.org/2000/svg" version="1.1" width="512px" height="512px" style="shape-rendering:geometricPrecision; text-rendering:geometricPrecision; image-rendering:optimizeQuality; fill-rule:evenodd; clip-rule:evenodd" xmlns:xlink="http://www.w3.org/1999/xlink">
<g><path style="opacity:0.917" fill="#000000" d="M 235.5,3.5 C 332.607,-0.359355 409.107,36.974 465,115.5C 511.745,191.03 519.079,270.363 487,353.5C 455.031,424.132 402.198,471.632 328.5,496C 260.046,515.372 194.546,508.205 132,474.5C 122.769,484.401 112.936,493.567 102.5,502C 83.8483,511.402 67.3483,508.569 53,493.5C 43.8087,479.243 43.142,464.577 51,449.5C 57.6498,442.016 64.4831,434.683 71.5,427.5C 16.2349,365.849 -5.2651,293.849 7,211.5C 21.16,137.281 59.9934,80.1144 123.5,40C 158.129,19.2897 195.463,7.12305 235.5,3.5 Z M 236.5,17.5 C 271.171,15.4768 304.838,20.3101 337.5,32C 343.834,34.1648 349.834,36.9982 355.5,40.5C 352.644,49.0539 347.31,55.5539 339.5,60C 324.833,65.3333 310.167,70.6667 295.5,76C 287.902,81.5939 280.902,87.9272 274.5,95C 263.16,103.583 251.16,104.583 238.5,98C 233.533,94.034 228.866,89.7007 224.5,85C 216.331,78.4985 206.998,75.1652 196.5,75C 188.5,74.6667 180.5,74.3333 172.5,74C 159.061,67.4457 146.395,59.6123 134.5,50.5C 166.104,31.8536 200.104,20.8536 236.5,17.5 Z M 315.5,248.5 C 325.798,237.702 336.298,227.035 347,216.5C 358.876,200.674 359.543,184.341 349,167.5C 335.162,152.667 318.996,149.501 300.5,158C 298.5,159.333 296.5,160.667 294.5,162C 280.653,176.014 266.653,189.847 252.5,203.5C 215.5,186.667 178.5,169.833 141.5,153C 138.594,151.682 135.594,151.348 132.5,152C 121,163.5 109.5,175 98,186.5C 96.627,188.695 96.2937,191.029 97,193.5C 124.138,221.639 151.638,249.472 179.5,277C 169.319,287.348 158.986,297.514 148.5,307.5C 137.56,305.556 126.56,303.889 115.5,302.5C 113.366,302.515 111.366,303.015 109.5,304C 98.3333,315.167 87.1667,326.333 76,337.5C 74.1024,341.506 74.9358,345.006 78.5,348C 93.6716,357.03 108.672,366.197 123.5,375.5C 109.869,389.632 96.0352,403.632 82,417.5C 32.6548,363.462 11.6548,299.796 19,226.5C 28.9205,157.462 61.7538,102.295 117.5,61C 119.044,59.8129 120.711,59.4795 122.5,60C 134.5,68 146.5,76 158.5,84C 162.363,85.7322 166.363,87.0656 170.5,88C 179.167,88.3333 187.833,88.6667 196.5,89C 203.567,89.3678 209.9,91.7011 215.5,96C 232.078,116.228 252.411,121.228 276.5,111C 285.13,104.039 293.463,96.7055 301.5,89C 316.756,83.1367 332.09,77.47 347.5,72C 357.582,65.9213 364.749,57.4213 369,46.5C 410.409,70.076 442.576,102.743 465.5,144.5C 454.619,147.513 443.619,150.347 432.5,153C 418.125,159.708 408.292,170.541 403,185.5C 401.181,195.407 400.181,205.407 400,215.5C 398.804,220.223 396.804,224.557 394,228.5C 389.833,232.667 385.667,236.833 381.5,241C 376.655,244.422 371.322,246.755 365.5,248C 348.837,248.5 332.17,248.667 315.5,248.5 Z M 300.5,398.5 C 305.298,402.797 309.965,407.297 314.5,412C 316.695,413.373 319.029,413.706 321.5,413C 333.971,401.53 346.138,389.696 358,377.5C 358.652,374.406 358.318,371.406 357,368.5C 340.73,333.179 324.563,297.846 308.5,262.5C 327.836,262.667 347.17,262.5 366.5,262C 391.036,256.464 406.87,241.631 414,217.5C 414.298,208.803 414.965,200.136 416,191.5C 419.587,179.578 427.087,171.078 438.5,166C 449.248,163.125 460.081,160.625 471,158.5C 476.329,167.507 480.329,177.174 483,187.5C 507.21,283.859 483.377,366.025 411.5,434C 375.649,464.782 334.315,483.282 287.5,489.5C 283.272,480.045 278.772,470.711 274,461.5C 269.09,450.19 269.756,439.19 276,428.5C 280.633,422.865 285.633,417.532 291,412.5C 294.437,407.941 297.604,403.274 300.5,398.5 Z M 292.5,251.5 C 291.007,252.312 290.34,253.645 290.5,255.5C 290.52,256.726 290.853,257.726 291.5,258.5C 307.37,294.268 323.537,329.935 340,365.5C 341.314,368.089 341.981,370.756 342,373.5C 334.333,381.167 326.667,388.833 319,396.5C 291.5,369 264,341.5 236.5,314C 234.167,313.333 231.833,313.333 229.5,314C 216.029,326.47 202.862,339.304 190,352.5C 188.978,354.702 188.478,357.035 188.5,359.5C 189.753,370.773 191.42,381.94 193.5,393C 185.667,400.833 177.833,408.667 170,416.5C 160.667,401.167 151.333,385.833 142,370.5C 125.918,360.208 109.751,350.042 93.5,340C 101.333,332.167 109.167,324.333 117,316.5C 129.678,319.216 142.512,320.716 155.5,321C 169,307.5 182.5,294 196,280.5C 196.667,278.167 196.667,275.833 196,273.5C 168.5,246 141,218.5 113.5,191C 121.375,182.79 129.542,174.956 138,167.5C 176.661,185.248 215.495,202.581 254.5,219.5C 255.938,219.281 257.271,218.781 258.5,218C 274.195,201.971 290.195,186.304 306.5,171C 321.657,164.052 333.157,167.886 341,182.5C 343.306,189.777 342.639,196.777 339,203.5C 322.912,219.085 307.412,235.085 292.5,251.5 Z M 289.5,386.5 C 287.955,390.593 286.121,394.593 284,398.5C 276.595,405.235 269.928,412.568 264,420.5C 257.449,432.47 255.449,445.137 258,458.5C 262.284,469.735 267.117,480.735 272.5,491.5C 203.475,495.995 143.641,474.995 93,428.5C 92.3333,427.833 92.3333,427.167 93,426.5C 106.398,412.599 120.232,399.266 134.5,386.5C 143.803,401.328 152.97,416.328 162,431.5C 164.909,434.394 168.409,435.227 172.5,434C 183.667,422.833 194.833,411.667 206,400.5C 206.985,398.634 207.485,396.634 207.5,394.5C 206.111,383.44 204.444,372.44 202.5,361.5C 212.486,351.014 222.652,340.681 233,330.5C 251.701,349.368 270.535,368.035 289.5,386.5 Z M 80.5,438.5 C 81.552,438.351 82.552,438.517 83.5,439C 94.4143,449.783 106.414,459.117 119.5,467C 111.53,473.969 103.864,481.302 96.5,489C 81.167,497.044 69.3337,493.544 61,478.5C 58.6028,471.203 59.2694,464.203 63,457.5C 68.6712,450.996 74.5045,444.663 80.5,438.5 Z"/></g>
<g><path style="opacity:0.935" fill="#33cccc" d="M 315.5,248.5 C 311.933,250.557 308.766,253.223 306,256.5C 305.992,258.821 306.825,260.821 308.5,262.5C 324.563,297.846 340.73,333.179 357,368.5C 358.318,371.406 358.652,374.406 358,377.5C 346.138,389.696 333.971,401.53 321.5,413C 319.029,413.706 316.695,413.373 314.5,412C 309.965,407.297 305.298,402.797 300.5,398.5C 297.564,393.895 293.898,389.895 289.5,386.5C 270.535,368.035 251.701,349.368 233,330.5C 222.652,340.681 212.486,351.014 202.5,361.5C 204.444,372.44 206.111,383.44 207.5,394.5C 207.485,396.634 206.985,398.634 206,400.5C 194.833,411.667 183.667,422.833 172.5,434C 168.409,435.227 164.909,434.394 162,431.5C 152.97,416.328 143.803,401.328 134.5,386.5C 133.5,380.167 129.833,376.5 123.5,375.5C 108.672,366.197 93.6716,357.03 78.5,348C 74.9358,345.006 74.1024,341.506 76,337.5C 87.1667,326.333 98.3333,315.167 109.5,304C 111.366,303.015 113.366,302.515 115.5,302.5C 126.56,303.889 137.56,305.556 148.5,307.5C 158.986,297.514 169.319,287.348 179.5,277C 151.638,249.472 124.138,221.639 97,193.5C 96.2937,191.029 96.627,188.695 98,186.5C 109.5,175 121,163.5 132.5,152C 135.594,151.348 138.594,151.682 141.5,153C 178.5,169.833 215.5,186.667 252.5,203.5C 266.653,189.847 280.653,176.014 294.5,162C 296.5,160.667 298.5,159.333 300.5,158C 318.996,149.501 335.162,152.667 349,167.5C 359.543,184.341 358.876,200.674 347,216.5C 336.298,227.035 325.798,237.702 315.5,248.5 Z M 292.5,251.5 C 291.007,252.312 290.34,253.645 290.5,255.5C 290.52,256.726 290.853,257.726 291.5,258.5C 307.37,294.268 323.537,329.935 340,365.5C 341.314,368.089 341.981,370.756 342,373.5C 334.333,381.167 326.667,388.833 319,396.5C 291.5,369 264,341.5 236.5,314C 234.167,313.333 231.833,313.333 229.5,314C 216.029,326.47 202.862,339.304 190,352.5C 188.978,354.702 188.478,357.035 188.5,359.5C 189.753,370.773 191.42,381.94 193.5,393C 185.667,400.833 177.833,408.667 170,416.5C 160.667,401.167 151.333,385.833 142,370.5C 125.918,360.208 109.751,350.042 93.5,340C 101.333,332.167 109.167,324.333 117,316.5C 129.678,319.216 142.512,320.716 155.5,321C 169,307.5 182.5,294 196,280.5C 196.667,278.167 196.667,275.833 196,273.5C 168.5,246 141,218.5 113.5,191C 121.375,182.79 129.542,174.956 138,167.5C 176.661,185.248 215.495,202.581 254.5,219.5C 255.938,219.281 257.271,218.781 258.5,218C 274.195,201.971 290.195,186.304 306.5,171C 321.657,164.052 333.157,167.886 341,182.5C 343.306,189.777 342.639,196.777 339,203.5C 322.912,219.085 307.412,235.085 292.5,251.5 Z"/></g>
<g><path style="opacity:0.575" fill="#1b7c7c" d="M 292.5,251.5 C 291.781,253.764 291.448,256.097 291.5,258.5C 290.853,257.726 290.52,256.726 290.5,255.5C 290.34,253.645 291.007,252.312 292.5,251.5 Z"/></g>
</svg>
