<?xml version="1.0" encoding="UTF-8"?>
<!DOCTYPE svg PUBLIC "-//W3C//DTD SVG 1.1//EN" "http://www.w3.org/Graphics/SVG/1.1/DTD/svg11.dtd">
<svg xmlns="http://www.w3.org/2000/svg" version="1.1" width="512px" height="512px" style="shape-rendering:geometricPrecision; text-rendering:geometricPrecision; image-rendering:optimizeQuality; fill-rule:evenodd; clip-rule:evenodd" xmlns:xlink="http://www.w3.org/1999/xlink">
<g><path style="opacity:0.943" fill="#000000" d="M 217.5,-0.5 C 241.5,-0.5 265.5,-0.5 289.5,-0.5C 291.475,0.646381 292.975,2.31305 294,4.5C 295.283,18.5973 290.117,29.5973 278.5,37.5C 277.926,54.2002 277.092,70.8669 276,87.5C 274.084,95.1712 270.25,101.671 264.5,107C 279.73,116.958 286.896,131.125 286,149.5C 297.572,162.982 308.905,176.649 320,190.5C 332.196,177.97 344.696,165.804 357.5,154C 356.044,149.065 354.711,144.065 353.5,139C 353.833,138.5 354.167,138 354.5,137.5C 360.134,136.008 365.801,134.675 371.5,133.5C 372.327,137.807 372.993,142.14 373.5,146.5C 396.437,146.936 407.603,158.603 407,181.5C 406.09,186.651 404.09,191.318 401,195.5C 396.453,199.711 392.286,204.211 388.5,209C 411.167,306 433.833,403 456.5,500C 456.095,500.945 455.428,501.612 454.5,502C 449.166,503.233 443.833,504.4 438.5,505.5C 416.987,411.438 395.154,317.438 373,223.5C 364.061,233.444 354.228,242.278 343.5,250C 323.469,258.588 304.302,257.088 286,245.5C 285.333,262.167 285.333,278.833 286,295.5C 310,343.5 334,391.5 358,439.5C 374.544,428.701 389.544,430.367 403,444.5C 410.568,459.006 408.401,471.84 396.5,483C 378.105,492.53 359.772,502.03 341.5,511.5C 338.5,511.5 335.5,511.5 332.5,511.5C 302.63,457.436 272.463,403.436 242,349.5C 240.543,345.04 237.543,342.374 233,341.5C 230.497,341.99 228.497,343.323 227,345.5C 226.667,360.5 226.333,375.5 226,390.5C 224.249,405.175 217.082,416.342 204.5,424C 178.687,434.742 153.02,445.742 127.5,457C 131.675,464.184 135.175,471.684 138,479.5C 140.452,494.842 134.619,505.509 120.5,511.5C 113.833,511.5 107.167,511.5 100.5,511.5C 95.3018,509.297 90.8018,505.963 87,501.5C 76.3333,480.167 65.6667,458.833 55,437.5C 53.7984,433.207 54.9651,429.707 58.5,427C 93.5949,409.535 129.095,393.035 165,377.5C 165.667,349.833 165.667,322.167 165,294.5C 162.07,296.255 158.903,297.422 155.5,298C 142.5,298.667 129.5,298.667 116.5,298C 99.3862,293.383 90.0529,282.216 88.5,264.5C 71.3537,267.472 60.187,260.806 55,244.5C 54.3333,228.833 54.3333,213.167 55,197.5C 57.1,187.799 62.9334,181.632 72.5,179C 77.8229,178.501 83.1563,178.334 88.5,178.5C 88.0718,161.119 88.5718,143.786 90,126.5C 92.1451,118.379 96.6451,111.879 103.5,107C 85.8522,87.2069 84.0188,66.0402 98,43.5C 115.586,23.8153 136.42,19.6486 160.5,31C 183.878,48.1987 189.378,70.0321 177,96.5C 175.954,98.0905 174.787,99.5905 173.5,101C 181.853,101.832 190.187,101.665 198.5,100.5C 195.463,95.894 193.297,90.894 192,85.5C 191.333,65.5 191.333,45.5 192,25.5C 196.026,12.3089 204.526,3.64221 217.5,-0.5 Z M 220.5,17.5 C 237.846,17.1672 255.179,17.5005 272.5,18.5C 270.269,20.8859 267.603,22.7193 264.5,24C 253.5,24.3333 242.5,24.6667 231.5,25C 223.735,30.761 216.569,37.261 210,44.5C 206.423,32.4869 209.923,23.4869 220.5,17.5 Z M 132.5,42.5 C 152.178,42.6803 163.178,52.5137 165.5,72C 163.676,89.8241 153.843,99.6575 136,101.5C 118.171,99.671 108.338,89.8377 106.5,72C 108.405,55.9242 117.072,46.0909 132.5,42.5 Z M 237.5,42.5 C 244.833,42.5 252.167,42.5 259.5,42.5C 259.929,56.5594 259.429,70.5594 258,84.5C 248.169,102.332 234.669,105.832 217.5,95C 210.576,88.2264 208.076,80.0597 210,70.5C 219.369,61.2984 228.536,51.965 237.5,42.5 Z M 134.5,68.5 C 139.328,68.3852 140.661,70.5519 138.5,75C 132.738,75.4178 131.404,73.2511 134.5,68.5 Z M 119.5,119.5 C 130.505,119.333 141.505,119.5 152.5,120C 158.353,121.42 162.353,124.92 164.5,130.5C 155.967,136.197 147.3,141.697 138.5,147C 121.093,163.61 118.26,182.443 130,203.5C 140.472,213.805 151.972,222.805 164.5,230.5C 165.495,235.792 165.828,241.125 165.5,246.5C 145.833,246.5 126.167,246.5 106.5,246.5C 106.333,208.832 106.5,171.165 107,133.5C 108.954,126.72 113.12,122.053 119.5,119.5 Z M 217.5,119.5 C 230.024,120.185 234.524,126.519 231,138.5C 213.256,150.625 195.089,162.125 176.5,173C 173.398,178.522 174.065,183.522 178.5,188C 198.946,202.112 219.112,216.612 239,231.5C 243.678,242.144 240.345,248.811 229,251.5C 224.374,250.205 220.207,248.038 216.5,245C 195.009,229.421 173.342,214.088 151.5,199C 137.607,186.601 137.274,173.934 150.5,161C 172.93,147.129 195.263,133.295 217.5,119.5 Z M 249.5,120.5 C 258.516,123.35 264.35,129.35 267,138.5C 267.5,188.832 267.667,239.166 267.5,289.5C 239.5,289.5 211.5,289.5 183.5,289.5C 183.334,284.489 183.501,279.489 184,274.5C 187.578,267.009 191.412,259.676 195.5,252.5C 203.096,258.258 211.096,263.424 219.5,268C 237.38,272.142 250.214,265.976 258,249.5C 261.144,238.654 259.477,228.654 253,219.5C 243.278,211.39 233.112,203.89 222.5,197C 221.426,196.261 220.759,195.261 220.5,194C 228.774,177.281 237.94,161.114 248,145.5C 250.734,137.32 251.234,128.987 249.5,120.5 Z M 378.5,164.5 C 388.397,167.693 391.23,174.027 387,183.5C 386,184.5 385,185.5 384,186.5C 381.539,179.323 379.706,171.99 378.5,164.5 Z M 209.5,174.5 C 208.291,177.721 206.624,180.721 204.5,183.5C 203.167,182.5 201.833,181.5 200.5,180.5C 202.975,177.759 205.975,175.759 209.5,174.5 Z M 361.5,174.5 C 363.943,183.351 366.277,192.351 368.5,201.5C 357.951,213.217 346.617,224.051 334.5,234C 314.039,242.014 297.872,236.847 286,218.5C 285.333,205.167 285.333,191.833 286,178.5C 295.144,189.945 304.644,201.112 314.5,212C 317.833,214 321.167,214 324.5,212C 337.035,199.632 349.369,187.132 361.5,174.5 Z M 76.5,196.5 C 80.5,196.5 84.5,196.5 88.5,196.5C 88.5,213.167 88.5,229.833 88.5,246.5C 84.4862,246.666 80.4862,246.499 76.5,246C 74.9512,244.786 73.7845,243.286 73,241.5C 72.3333,227.833 72.3333,214.167 73,200.5C 73.6897,198.65 74.8564,197.316 76.5,196.5 Z M 106.5,264.5 C 126.167,264.5 145.833,264.5 165.5,264.5C 164.496,272.016 160.496,277.183 153.5,280C 142.167,280.667 130.833,280.667 119.5,280C 112.102,277.433 107.769,272.266 106.5,264.5 Z M 183.5,307.5 C 212.835,307.333 242.169,307.5 271.5,308C 294.833,354.333 318.167,400.667 341.5,447C 335.413,451.057 329.08,453.89 322.5,455.5C 299.333,414.5 276.167,373.5 253,332.5C 243.194,322.748 232.028,320.915 219.5,327C 215.578,330.251 212.412,334.084 210,338.5C 208.71,355.1 208.043,371.767 208,388.5C 206.723,397.9 201.889,404.734 193.5,409C 169.057,419.305 144.557,429.471 120,439.5C 116.339,434.185 113.172,428.518 110.5,422.5C 133.007,412.05 155.673,401.883 178.5,392C 180.726,390.773 182.226,388.939 183,386.5C 183.5,360.169 183.667,333.835 183.5,307.5 Z M 91.5,430.5 C 92.675,430.281 93.675,430.614 94.5,431.5C 103,448.5 111.5,465.5 120,482.5C 121.378,486.898 120.212,490.398 116.5,493C 112.5,493.667 108.5,493.667 104.5,493C 94.5293,475.561 85.1959,457.727 76.5,439.5C 81.362,436.237 86.362,433.237 91.5,430.5 Z M 375.5,450.5 C 386.176,450.328 390.343,455.328 388,465.5C 386.833,466.667 385.667,467.833 384.5,469C 369.963,476.605 355.296,483.605 340.5,490C 337.5,484.333 334.5,478.667 331.5,473C 346.384,465.726 361.051,458.226 375.5,450.5 Z"/></g>
<g><path style="opacity:0.871" fill="#000000" d="M 133.5,58.5 C 146.393,59.2796 151.227,65.9462 148,78.5C 140.776,87.3372 133.109,87.6705 125,79.5C 120.729,69.5635 123.562,62.5635 133.5,58.5 Z M 134.5,68.5 C 131.404,73.2511 132.738,75.4178 138.5,75C 140.661,70.5519 139.328,68.3852 134.5,68.5 Z"/></g>
</svg>
